<svg viewBox="0 0 48 48" fill="none" xmlns="http://www.w3.org/2000/svg">
  <mask id="mask0_3235_32026" style="mask-type:alpha" maskUnits="userSpaceOnUse" x="12" y="12" width="24" height="24">
    <rect x="12" y="12" width="24" height="24" fill="#D9D9D9" />
  </mask>
  <g mask="url(#mask0_3235_32026)">
    <path
      d="M17 32C16.45 32 15.9792 31.8042 15.5875 31.4125C15.1958 31.0208 15 30.55 15 30V18C15 17.45 15.1958 16.9792 15.5875 16.5875C15.9792 16.1958 16.45 16 17 16H31C31.55 16 32.0208 16.1958 32.4125 16.5875C32.8042 16.9792 33 17.45 33 18V30C33 30.55 32.8042 31.0208 32.4125 31.4125C32.0208 31.8042 31.55 32 31 32H17ZM17 30H31V18H17V30ZM19 27H22C22.2833 27 22.5208 26.9042 22.7125 26.7125C22.9042 26.5208 23 26.2833 23 26V25H21.5V25.5H19.5V22.5H21.5V23H23V22C23 21.7167 22.9042 21.4792 22.7125 21.2875C22.5208 21.0958 22.2833 21 22 21H19C18.7167 21 18.4792 21.0958 18.2875 21.2875C18.0958 21.4792 18 21.7167 18 22V26C18 26.2833 18.0958 26.5208 18.2875 26.7125C18.4792 26.9042 18.7167 27 19 27ZM26 27H29C29.2833 27 29.5208 26.9042 29.7125 26.7125C29.9042 26.5208 30 26.2833 30 26V25H28.5V25.5H26.5V22.5H28.5V23H30V22C30 21.7167 29.9042 21.4792 29.7125 21.2875C29.5208 21.0958 29.2833 21 29 21H26C25.7167 21 25.4792 21.0958 25.2875 21.2875C25.0958 21.4792 25 21.7167 25 22V26C25 26.2833 25.0958 26.5208 25.2875 26.7125C25.4792 26.9042 25.7167 27 26 27Z"
      fill="currentColor" />
  </g>
</svg>