<svg viewBox="0 0 21 21" fill="none" xmlns="http://www.w3.org/2000/svg">
  <path
    d="M10.834 20.8334C9.45201 20.8334 8.15356 20.5725 6.93864 20.0508C5.72371 19.5289 4.66344 18.8152 3.75782 17.9095C2.8522 17.0039 2.13844 15.9436 1.61654 14.7287C1.09484 13.5138 0.833984 12.2154 0.833984 10.8334C0.833984 9.44694 1.09484 8.14733 1.61654 6.93454C2.13844 5.72194 2.8522 4.66283 3.75782 3.75721C4.66344 2.85159 5.72371 2.13783 6.93864 1.61593C8.15356 1.09423 9.45201 0.833374 10.834 0.833374C12.2204 0.833374 13.52 1.09423 14.7328 1.61593C15.9454 2.13783 17.0045 2.85159 17.9101 3.75721C18.8158 4.66283 19.5295 5.72194 20.0514 6.93454C20.5731 8.14733 20.834 9.44694 20.834 10.8334C20.834 12.2154 20.5731 13.5138 20.0514 14.7287C19.5295 15.9436 18.8158 17.0039 17.9101 17.9095C17.0045 18.8152 15.9454 19.5289 14.7328 20.0508C13.52 20.5725 12.2204 20.8334 10.834 20.8334ZM10.834 19.8831C11.3423 19.3748 11.7985 18.6252 12.2026 17.6345C12.6065 16.644 12.918 15.5189 13.1372 14.2592H8.53079C8.77982 15.5784 9.09881 16.7334 9.48776 17.7241C9.87691 18.7146 10.3257 19.4342 10.834 19.8831ZM9.73166 19.8831C9.26654 19.3017 8.83902 18.5063 8.4491 17.497C8.05937 16.4877 7.77429 15.4085 7.59387 14.2592H2.40811C3.07458 15.8408 4.06296 17.1284 5.37323 18.122C6.68369 19.1156 8.1365 19.7027 9.73166 19.8831ZM11.9363 19.8831C13.5315 19.7027 14.9843 19.1156 16.2947 18.122C17.605 17.1284 18.5934 15.8408 19.2599 14.2592H14.0741C13.8193 15.4234 13.4969 16.5101 13.1069 17.5194C12.7172 18.5287 12.327 19.3166 11.9363 19.8831ZM2.13776 13.329H7.55579C7.48718 12.8713 7.44435 12.4258 7.4273 11.9927C7.41005 11.5597 7.40143 11.1539 7.40143 10.7752C7.40143 10.3966 7.41005 10.0004 7.4273 9.58686C7.44435 9.1731 7.48718 8.75673 7.55579 8.33774H2.13776C2.01102 8.72087 1.91703 9.13047 1.85579 9.56651C1.79474 10.0026 1.76422 10.4248 1.76422 10.8334C1.76422 11.2419 1.79474 11.6642 1.85579 12.1002C1.91703 12.5363 2.01102 12.9459 2.13776 13.329ZM8.51509 13.329H13.1529C13.2215 12.8519 13.2643 12.4139 13.2814 12.0151C13.2986 11.6164 13.3072 11.2225 13.3072 10.8334C13.3072 10.4442 13.2986 10.0455 13.2814 9.63715C13.2643 9.22863 13.2215 8.79549 13.1529 8.33774H8.51509C8.44649 8.79549 8.40366 9.22863 8.3866 9.63715C8.36935 10.0455 8.36073 10.4442 8.36073 10.8334C8.36073 11.2225 8.36935 11.6213 8.3866 12.0296C8.40366 12.4381 8.44649 12.8713 8.51509 13.329ZM14.1122 13.329H19.5302C19.6569 12.9459 19.7509 12.5363 19.8122 12.1002C19.8732 11.6642 19.9038 11.2419 19.9038 10.8334C19.9038 10.4248 19.8732 9.99771 19.8122 9.55198C19.7509 9.10624 19.6569 8.7015 19.5302 8.33774H14.1122C14.1808 8.79549 14.2236 9.24093 14.2407 9.67407C14.2579 10.107 14.2665 10.5128 14.2665 10.8915C14.2665 11.2702 14.2579 11.6663 14.2407 12.0799C14.2236 12.4936 14.1808 12.91 14.1122 13.329ZM14.0741 7.4075H19.2599C18.5785 5.79607 17.6012 4.50847 16.3282 3.54471C15.0551 2.58095 13.5912 1.98647 11.9363 1.76128C12.4014 2.41729 12.8215 3.2387 13.1965 4.22553C13.5715 5.21254 13.864 6.2732 14.0741 7.4075ZM8.53079 7.4075H13.1372C12.8882 6.10324 12.5579 4.93715 12.1465 3.90925C11.7351 2.88134 11.2976 2.17281 10.834 1.78366C10.3704 2.17281 9.93292 2.88134 9.52148 3.90925C9.11005 4.93715 8.77982 6.10324 8.53079 7.4075ZM2.40811 7.4075H7.59387C7.80395 6.2732 8.09649 5.21254 8.47149 4.22553C8.84649 3.2387 9.26654 2.41729 9.73166 1.76128C8.06189 1.98647 6.59426 2.58463 5.32875 3.55576C4.06305 4.52708 3.08951 5.81099 2.40811 7.4075Z"
    fill="currentColor" />
</svg>