<svg xmlns="http://www.w3.org/2000/svg" viewBox="0 0 32 32" fill="none">
  <path
    d="M16.0013 2.71875C8.66797 2.71875 2.66797 8.70542 2.66797 16.0788C2.66797 22.7454 7.54797 28.2787 13.9213 29.2787V19.9454H10.5346V16.0788H13.9213V13.1321C13.9213 9.78542 15.908 7.94542 18.9613 7.94542C20.4146 7.94542 21.9346 8.19875 21.9346 8.19875V11.4921H20.2546C18.6013 11.4921 18.0813 12.5188 18.0813 13.5721V16.0788H21.788L21.188 19.9454H18.0813V29.2787C21.2232 28.7825 24.0842 27.1794 26.1479 24.7588C28.2115 22.3382 29.3418 19.2596 29.3346 16.0788C29.3346 8.70542 23.3346 2.71875 16.0013 2.71875Z"
    fill="currentColor" />
</svg>