<svg viewBox="0 0 108 108" fill="none" xmlns="http://www.w3.org/2000/svg">
  <mask id="mask0_7570_29947" style="mask-type:alpha" maskUnits="userSpaceOnUse" x="0" y="0" width="108" height="108">
    <rect width="108" height="108" fill="#D9D9D9" />
  </mask>
  <g mask="url(#mask0_7570_29947)">
    <path
      d="M45.0074 76.776L83.2226 38.5609L80.1407 35.479L45.0074 70.6123L27.4408 53.0457L24.3589 56.1275L45.0074 76.776ZM53.971 107.595C46.5571 107.595 39.5854 106.188 33.0559 103.374C26.5265 100.56 20.8471 96.7414 16.0178 91.9173C11.1875 87.0931 7.36392 81.4209 4.54709 74.9007C1.72924 68.3795 0.320312 61.4114 0.320312 53.9964C0.320312 46.5825 1.72719 39.6108 4.54093 33.0813C7.35468 26.5519 11.1736 20.8725 15.9978 16.0432C20.8219 11.2129 26.4941 7.38931 33.0143 4.57248C39.5356 1.75463 46.5037 0.345703 53.9186 0.345703C61.3326 0.345703 68.3043 1.75258 74.8337 4.56632C81.3632 7.38007 87.0426 11.199 91.8718 16.0232C96.7022 20.8473 100.526 26.5195 103.343 33.0397C106.16 39.5609 107.569 46.529 107.569 53.944C107.569 61.358 106.162 68.3297 103.349 74.8591C100.535 81.3886 96.716 87.0679 91.8919 91.8972C87.0677 96.7276 81.3955 100.551 74.8753 103.368C68.3541 106.186 61.386 107.595 53.971 107.595ZM53.9448 103.28C67.7105 103.28 79.3702 98.5032 88.924 88.9494C98.4778 79.3956 103.255 67.7359 103.255 53.9702C103.255 40.2045 98.4778 28.5448 88.924 18.991C79.3702 9.43722 67.7105 4.66032 53.9448 4.66032C40.1791 4.66032 28.5194 9.43722 18.9656 18.991C9.41183 28.5448 4.63493 40.2045 4.63493 53.9702C4.63493 67.7359 9.41183 79.3956 18.9656 88.9494C28.5194 98.5032 40.1791 103.28 53.9448 103.28Z"
      fill="#86B847" />
  </g>
</svg>