<svg xmlns="http://www.w3.org/2000/svg" viewBox="0 0 32 32" fill="none">
  <path
    d="M10.4013 2.66602H21.6013C25.868 2.66602 29.3346 6.13268 29.3346 10.3993V21.5993C29.3346 23.6504 28.5199 25.6174 27.0696 27.0676C25.6193 28.5179 23.6523 29.3327 21.6013 29.3327H10.4013C6.13464 29.3327 2.66797 25.866 2.66797 21.5993V10.3993C2.66797 8.34834 3.48273 6.38134 4.93301 4.93106C6.38329 3.48078 8.35029 2.66602 10.4013 2.66602ZM10.1346 5.33268C8.8616 5.33268 7.6407 5.8384 6.74052 6.73857C5.84035 7.63874 5.33464 8.85964 5.33464 10.1327V21.866C5.33464 24.5193 7.4813 26.666 10.1346 26.666H21.868C23.141 26.666 24.3619 26.1603 25.2621 25.2601C26.1623 24.36 26.668 23.1391 26.668 21.866V10.1327C26.668 7.47935 24.5213 5.33268 21.868 5.33268H10.1346ZM23.0013 7.33268C23.4433 7.33268 23.8673 7.50828 24.1798 7.82084C24.4924 8.1334 24.668 8.55732 24.668 8.99935C24.668 9.44138 24.4924 9.8653 24.1798 10.1779C23.8673 10.4904 23.4433 10.666 23.0013 10.666C22.5593 10.666 22.1353 10.4904 21.8228 10.1779C21.5102 9.8653 21.3346 9.44138 21.3346 8.99935C21.3346 8.55732 21.5102 8.1334 21.8228 7.82084C22.1353 7.50828 22.5593 7.33268 23.0013 7.33268ZM16.0013 9.33268C17.7694 9.33268 19.4651 10.0351 20.7153 11.2853C21.9656 12.5355 22.668 14.2312 22.668 15.9993C22.668 17.7675 21.9656 19.4632 20.7153 20.7134C19.4651 21.9636 17.7694 22.666 16.0013 22.666C14.2332 22.666 12.5375 21.9636 11.2873 20.7134C10.037 19.4632 9.33463 17.7675 9.33463 15.9993C9.33463 14.2312 10.037 12.5355 11.2873 11.2853C12.5375 10.0351 14.2332 9.33268 16.0013 9.33268ZM16.0013 11.9993C14.9404 11.9993 13.923 12.4208 13.1729 13.1709C12.4227 13.9211 12.0013 14.9385 12.0013 15.9993C12.0013 17.0602 12.4227 18.0776 13.1729 18.8278C13.923 19.5779 14.9404 19.9993 16.0013 19.9993C17.0622 19.9993 18.0796 19.5779 18.8297 18.8278C19.5799 18.0776 20.0013 17.0602 20.0013 15.9993C20.0013 14.9385 19.5799 13.9211 18.8297 13.1709C18.0796 12.4208 17.0622 11.9993 16.0013 11.9993Z"
    fill="currentColor" />
</svg>