<svg xmlns="http://www.w3.org/2000/svg" fill="none" viewBox="0 0 193 52">
  <path fill="url(#paint0_linear_4286_16073)" d="M26.12 43.828v-17.71l-8.083 9.628v16.165h16.165l9.627-8.083H26.12Z" />
  <path fill="url(#paint1_linear_4286_16073)" d="M18.007 18.037H.297l9.627 8.082H26.12V9.925L18.036.297l-.03 17.74Z" />
  <path fill="currentColor"
    d="M49.742 20.562h-5.913v15.155h-3.715V20.562h-5.913v-2.555h15.54v2.555ZM69.413 35.746H58.805c-1.843 0-3.269-.297-4.28-.92-1.128-.655-1.693-1.605-1.693-2.854V21.96c0-1.218.505-2.17 1.486-2.883.98-.713 2.377-1.04 4.13-1.04h10.935v2.556h-9.657c-2.14 0-3.21.654-3.21 1.99v3.032h12.867v2.555H56.517v3.001c0 1.367 1.07 2.02 3.238 2.02h9.598v2.556h.06ZM91.728 35.746h-4.606l-9.092-6.804c-.297-.238-.446-.595-.446-1.13 0-.98.773-1.485 2.288-1.515h5.438c1.812 0 2.704-.594 2.704-1.783v-2.02c0-1.248-1.01-1.902-3.06-1.902h-7.697v15.154h-3.714v-17.71h12.48c3.803 0 5.705 1.248 5.705 3.774v3.06c0 1.13-.505 1.992-1.486 2.675-.98.654-2.288 1.01-3.892 1.01H82.07l9.657 7.191ZM113.478 35.746h-4.606l-9.092-6.804c-.297-.238-.446-.595-.446-1.13 0-.98.773-1.485 2.288-1.515h5.438c1.812 0 2.704-.594 2.704-1.783v-2.02c0-1.248-1.01-1.902-3.061-1.902h-7.696v15.154h-3.714v-17.71h12.48c3.803 0 5.705 1.248 5.705 3.774v3.06c0 1.13-.505 1.992-1.486 2.675-.98.654-2.288 1.01-3.892 1.01h-4.279l9.657 7.191ZM133.596 35.746h-10.608c-1.842 0-3.268-.297-4.279-.92-1.129-.655-1.693-1.605-1.693-2.854V21.96c0-1.218.505-2.17 1.485-2.883.981-.713 2.377-1.04 4.131-1.04h10.934v2.556h-9.657c-2.139 0-3.209.654-3.209 1.99v3.032h12.866v2.555H120.7v3.001c0 1.367 1.07 2.02 3.239 2.02h9.598v2.556h.059ZM154.366 35.746h-9.865c-2.169 0-3.833-.327-4.992-.95-1.159-.625-1.753-1.724-1.753-3.299v-13.46h3.714v12.866c0 .891.297 1.545.921 1.901.446.268 1.427.387 2.942.387h9.033v2.555ZM183.842 19.463c-.565-1.07-1.545-1.635-2.942-1.635-1.396 0-2.377.535-2.941 1.635l-7.013 13.728h-7.072c-1.515 0-2.496-.12-2.942-.387-.624-.356-.921-.98-.921-1.901V18.037h-3.714v13.46c0 1.575.594 2.674 1.753 3.298 1.159.624 2.823.951 4.992.951H173.62l2.229-4.398h10.103l2.228 4.398h3.982l-8.32-16.283Zm-6.834 9.42 3.684-7.934 4.071 7.933h-7.755ZM98.948 44.81v5.734h-1.367v-5.735h-2.317v-.98h5.972v.98h-2.288ZM105.337 50.544c-1.278 0-2.169-.475-2.169-1.426v-3.804c0-.92.773-1.485 2.05-1.485h4.012v.98h-3.536c-.713 0-1.189.208-1.189.743v1.159h4.695v.98h-4.695v1.13c0 .564.446.772 1.189.772h3.506v.98h-3.863v-.029ZM114.191 44.81c-.327 0-.594 0-.832.148-.237.148-.297.356-.297.564v3.18c0 .654.327.861 1.218.861h3.507v.981h-4.012c-1.337 0-2.08-.564-2.08-1.515v-3.715c0-.475.06-.861.565-1.188.475-.297 1.01-.297 1.604-.297h3.893v.98h-3.566ZM125.424 50.544v-2.882h-4.071v2.882h-1.367v-6.715h1.367v2.882h4.071v-2.882h1.367v6.715h-1.367ZM135.348 50.603c-.742 0-.861-.326-1.158-.772l-3.15-4.754v5.437h-1.308V44.72c0-.535.268-.98 1.1-.98.743 0 .891.326 1.188.742l3.12 4.755v-5.438h1.308v5.883c.03.505-.357.921-1.1.921ZM143.371 50.544h-2.05c-.565 0-1.159-.06-1.605-.327-.475-.267-.654-.743-.654-1.188v-3.685c0-.446.209-.891.654-1.188.446-.298 1.011-.357 1.605-.357h2.08c1.426 0 2.228.475 2.228 1.515v3.655c0 1.1-.832 1.575-2.258 1.575Zm.891-4.903c0-.624-.356-.832-1.188-.832h-1.426c-.862 0-1.219.208-1.219.832v3.12c0 .238.06.476.298.624.237.178.564.178.921.178h1.426c.802 0 1.188-.178 1.188-.772v-3.15ZM150.621 50.544c-.714 0-1.248-.03-1.813-.356-.565-.327-.654-.773-.654-1.248v-5.111h1.367v4.873c0 .267 0 .535.327.713.297.178.683.148 1.07.148h3.298v.981h-3.595ZM159.98 50.544h-2.05c-.564 0-1.159-.06-1.604-.327-.476-.267-.654-.743-.654-1.188v-3.685c0-.446.208-.891.654-1.188.445-.298 1.01-.357 1.604-.357h2.08c1.426 0 2.229.475 2.229 1.515v3.655c-.03 1.1-.832 1.575-2.259 1.575Zm.892-4.903c0-.624-.357-.832-1.189-.832h-1.426c-.862 0-1.218.208-1.218.832v3.12c0 .238.059.476.297.624.238.178.564.178.921.178h1.426c.803 0 1.189-.178 1.189-.772v-3.15ZM170.797 50.098c-.445.357-.861.446-1.515.446h-2.377c-.684 0-1.159-.03-1.664-.386-.595-.386-.595-.803-.595-1.337v-3.417c0-.535.06-.922.714-1.278.475-.268.98-.297 1.574-.297h3.893v.98h-3.625c-.802 0-1.189.149-1.189.773v3.209c0 .267.03.446.327.624.297.178.476.148.832.148h1.753c.684 0 1.04-.267 1.04-.742V46.83h1.337v2.08c.03.475-.059.832-.505 1.188ZM173.947 50.544v-6.715h1.367v6.715h-1.367ZM180.157 50.544c-1.277 0-2.169-.475-2.169-1.426v-3.804c0-.92.773-1.485 2.051-1.485h4.011v.98h-3.566c-.713 0-1.188.208-1.188.743v1.159h4.695v.98h-4.695v1.13c0 .564.445.772 1.188.772h3.507v.98h-3.834v-.029ZM188.655 44.81c-1.248 0-1.189.445-1.189 1.158 0 .208.09.416.327.535.268.148.535.148.862.148h1.426c1.189 0 2.021.476 2.021 1.367v1.07c0 .95-.832 1.426-2.11 1.426h-3.863v-.98h3.477c1.307 0 1.188-.505 1.188-1.248 0-.535-.445-.684-1.129-.684h-1.456c-1.129 0-2.109-.475-2.109-1.337v-1.04c0-.446.237-.832.683-1.129.416-.238.862-.297 1.397-.297h3.952v.98h-3.477v.03Z" />
  <defs>
    <linearGradient id="paint0_linear_4286_16073" x1=".296" x2="38.866" y1="20.741" y2="53.105"
      gradientUnits="userSpaceOnUse">
      <stop offset=".062" stop-color="#8F3F1E" />
      <stop offset=".103" stop-color="#9B4826" />
      <stop offset=".177" stop-color="#BA5F3A" />
      <stop offset=".275" stop-color="#EC855B" />
      <stop offset=".281" stop-color="#F0885D" />
      <stop offset=".359" stop-color="#EDA78A" />
      <stop offset=".428" stop-color="#EBC0AE" />
      <stop offset=".488" stop-color="#EEA181" />
      <stop offset=".542" stop-color="#F0885D" />
      <stop offset=".667" stop-color="#B35A35" />
      <stop offset=".75" stop-color="#8F3F1E" />
      <stop offset=".812" stop-color="#833A20" />
      <stop offset=".923" stop-color="#642E24" />
      <stop offset=".982" stop-color="#512627" />
    </linearGradient>
    <linearGradient id="paint1_linear_4286_16073" x1="45.235" x2="6.666" y1="39.431" y2="7.068"
      gradientUnits="userSpaceOnUse">
      <stop offset=".019" stop-color="#512627" />
      <stop offset=".077" stop-color="#642E24" />
      <stop offset=".188" stop-color="#833A20" />
      <stop offset=".25" stop-color="#8F3F1E" />
      <stop offset=".291" stop-color="#B35A35" />
      <stop offset=".352" stop-color="#F0885D" />
      <stop offset=".398" stop-color="#EEA181" />
      <stop offset=".449" stop-color="#EBC0AE" />
      <stop offset=".524" stop-color="#EDA78A" />
      <stop offset=".608" stop-color="#F0885D" />
      <stop offset=".618" stop-color="#EC855B" />
      <stop offset=".767" stop-color="#BA5F3A" />
      <stop offset=".879" stop-color="#9B4826" />
      <stop offset=".942" stop-color="#8F3F1E" />
    </linearGradient>
  </defs>
</svg>