<svg viewBox="0 0 48 48" fill="none" xmlns="http://www.w3.org/2000/svg">
  <path fill-rule="evenodd" clip-rule="evenodd"
    d="M33 29.0679V18C33 17.45 32.8042 16.9792 32.4125 16.5875C32.0208 16.1958 31.55 16 31 16H17.7248L20.0627 18H31V27.3569L33 29.0679ZM29.9127 26.4267C29.9709 26.2984 30 26.1561 30 26V25H28.5V25.2181L29.9127 26.4267ZM27.2912 25.5L29.0437 26.9992C29.0292 26.9997 29.0147 27 29 27H26C25.9891 27 25.9783 26.9999 25.9675 26.9996L25.0146 26.1844C25.0049 26.1252 25 26.0638 25 26V23.5399L26.5 24.8231V25.5H27.2912ZM26.5 23.5071V22.5H28.5V23H30V22C30 21.7167 29.9042 21.4792 29.7125 21.2875C29.5208 21.0958 29.2833 21 29 21H26C25.7167 21 25.4792 21.0958 25.2875 21.2875C25.0958 21.4792 25 21.7167 25 22V22.2239L26.5 23.5071ZM22.0316 21.0004L22.9856 21.8166C22.9952 21.8754 23 21.9366 23 22V23H21.5V22.5H20.7079L18.9554 21.0008C18.9702 21.0003 18.985 21 19 21H22C22.0106 21 22.0211 21.0001 22.0316 21.0004ZM18.5244 18L16.3196 16.1139C16.0508 16.2104 15.8067 16.3683 15.5875 16.5875C15.2836 16.8914 15.0976 17.243 15.0295 17.6422L17 19.3279V18H18.5244ZM17 20.6439L15 18.9329V30C15 30.55 15.1958 31.0208 15.5875 31.4125C15.9792 31.8042 16.45 32 17 32H30.2742L27.9364 30H17V20.6439ZM22.0919 25L23 25.7769V26C23 26.2833 22.9042 26.5208 22.7125 26.7125C22.5208 26.9042 22.2833 27 22 27H19C18.7167 27 18.4792 26.9042 18.2875 26.7125C18.0958 26.5208 18 26.2833 18 26V22C18 21.8441 18.029 21.7021 18.0871 21.5739L19.5 22.7827V25.5H21.5V25H22.0919ZM29.4747 30L31.6797 31.8864C31.9488 31.7899 32.1931 31.6319 32.4125 31.4125C32.7162 31.1088 32.9022 30.7575 32.9704 30.3585L31 28.6729V30H29.4747Z"
    fill="currentColor" />
  <path d="M13.6201 16.436L14.9203 14.9163L34.3795 31.5636L33.0793 33.0833L13.6201 16.436Z" fill="currentColor" />
</svg>