<svg viewBox="0 0 48 48" fill="none" xmlns="http://www.w3.org/2000/svg">
  <mask id="mask0_3235_32062" style="mask-type:alpha" maskUnits="userSpaceOnUse" x="12" y="12" width="24" height="24">
    <rect x="12" y="12" width="24" height="24" fill="#D9D9D9" />
  </mask>
  <g mask="url(#mask0_3235_32062)">
    <path
      d="M26 32.7251V30.6751C27.5 30.2418 28.7083 29.4084 29.625 28.1751C30.5417 26.9418 31 25.5418 31 23.9751C31 22.4084 30.5417 21.0084 29.625 19.7751C28.7083 18.5418 27.5 17.7084 26 17.2751V15.2251C28.0667 15.6918 29.75 16.7376 31.05 18.3626C32.35 19.9876 33 21.8584 33 23.9751C33 26.0918 32.35 27.9626 31.05 29.5876C29.75 31.2126 28.0667 32.2584 26 32.7251ZM15 27.0001V21.0001H19L24 16.0001V32.0001L19 27.0001H15ZM26 28.0001V19.9501C26.7833 20.3168 27.3958 20.8668 27.8375 21.6001C28.2792 22.3334 28.5 23.1334 28.5 24.0001C28.5 24.8501 28.2792 25.6376 27.8375 26.3626C27.3958 27.0876 26.7833 27.6334 26 28.0001Z"
      fill="currentColor" />
  </g>
</svg>